<svg width="375" height="66" viewBox="0 0 375 66" fill="none" xmlns="http://www.w3.org/2000/svg">
<rect x="0.0108948" y="1.02148" width="375" height="64" fill="white"/>
<path d="M55.4878 43.7201C58.397 43.7201 61.1134 42.7827 63.3216 41.2203L71.6285 49.4486C72.0141 49.8305 72.5223 50.0215 73.0481 50.0215C74.1872 50.0215 75.0109 49.1535 75.0109 48.0425C75.0109 47.5217 74.8356 47.0357 74.4501 46.6538L66.1957 38.4602C67.9307 36.2035 68.9647 33.4086 68.9647 30.3708C68.9647 23.0278 62.901 17.0215 55.4878 17.0215C48.0571 17.0215 42.0109 23.0278 42.0109 30.3708C42.0109 37.7138 48.0571 43.7201 55.4878 43.7201ZM55.4878 40.8384C49.6869 40.8384 44.9201 36.0993 44.9201 30.3708C44.9201 24.6422 49.6869 19.9031 55.4878 19.9031C61.2711 19.9031 66.0555 24.6422 66.0555 30.3708C66.0555 36.0993 61.2711 40.8384 55.4878 40.8384Z" fill="#4860DE"/>
<line y1="0.5" x2="375" y2="0.5" stroke="#07072F" stroke-opacity="0.08"/>
<path d="M338.721 34.4315C338.781 33.9815 338.811 33.5165 338.811 33.0215C338.811 32.5415 338.781 32.0615 338.706 31.6115L341.751 29.2415C342.021 29.0315 342.096 28.6265 341.931 28.3265L339.051 23.3465C338.871 23.0165 338.496 22.9115 338.166 23.0165L334.581 24.4565C333.831 23.8865 333.036 23.4065 332.151 23.0465L331.611 19.2365C331.551 18.8765 331.251 18.6215 330.891 18.6215H325.131C324.771 18.6215 324.486 18.8765 324.426 19.2365L323.886 23.0465C323.001 23.4065 322.191 23.9015 321.456 24.4565L317.871 23.0165C317.541 22.8965 317.166 23.0165 316.986 23.3465L314.121 28.3265C313.941 28.6415 314.001 29.0315 314.301 29.2415L317.346 31.6115C317.271 32.0615 317.211 32.5565 317.211 33.0215C317.211 33.4865 317.241 33.9815 317.316 34.4315L314.271 36.8015C314.001 37.0115 313.926 37.4165 314.091 37.7165L316.971 42.6965C317.151 43.0265 317.526 43.1315 317.856 43.0265L321.441 41.5865C322.191 42.1565 322.986 42.6365 323.871 42.9965L324.411 46.8065C324.486 47.1665 324.771 47.4215 325.131 47.4215H330.891C331.251 47.4215 331.551 47.1665 331.596 46.8065L332.136 42.9965C333.021 42.6365 333.831 42.1565 334.566 41.5865L338.151 43.0265C338.481 43.1465 338.856 43.0265 339.036 42.6965L341.916 37.7165C342.096 37.3865 342.021 37.0115 341.736 36.8015L338.721 34.4315ZM328.011 38.4215C325.041 38.4215 322.611 35.9915 322.611 33.0215C322.611 30.0515 325.041 27.6215 328.011 27.6215C330.981 27.6215 333.411 30.0515 333.411 33.0215C333.411 35.9915 330.981 38.4215 328.011 38.4215Z" fill="#DADADA"/>
<path d="M194.511 19.0215H179.511C177.861 19.0215 176.526 20.5215 176.526 22.3548L176.511 49.0215L187.011 44.0215L197.511 49.0215V22.3548C197.511 20.5215 196.161 19.0215 194.511 19.0215Z" fill="#DADADA"/>
</svg>
